<?xml version="1.0" standalone="no"?><svg xmlns="http://www.w3.org/2000/svg" viewBox="0 0 1440 320"><path fill="#000000" fill-opacity="1" d="M0,192L0,224L42.4,224L42.4,192L84.7,192L84.7,64L127.1,64L127.1,0L169.4,0L169.4,64L211.8,64L211.8,320L254.1,320L254.1,160L296.5,160L296.5,288L338.8,288L338.8,288L381.2,288L381.2,192L423.5,192L423.5,288L465.9,288L465.9,192L508.2,192L508.2,128L550.6,128L550.6,192L592.9,192L592.9,64L635.3,64L635.3,192L677.6,192L677.6,64L720,64L720,128L762.4,128L762.4,128L804.7,128L804.7,32L847.1,32L847.1,192L889.4,192L889.4,288L931.8,288L931.8,320L974.1,320L974.1,192L1016.5,192L1016.5,96L1058.8,96L1058.8,32L1101.2,32L1101.2,32L1143.5,32L1143.5,320L1185.9,320L1185.9,192L1228.2,192L1228.2,160L1270.6,160L1270.6,160L1312.9,160L1312.9,288L1355.3,288L1355.3,288L1397.6,288L1397.6,128L1440,128L1440,320L1397.6,320L1397.6,320L1355.3,320L1355.3,320L1312.9,320L1312.9,320L1270.6,320L1270.6,320L1228.2,320L1228.2,320L1185.9,320L1185.9,320L1143.5,320L1143.5,320L1101.2,320L1101.2,320L1058.8,320L1058.8,320L1016.5,320L1016.5,320L974.1,320L974.1,320L931.8,320L931.8,320L889.4,320L889.4,320L847.1,320L847.1,320L804.7,320L804.7,320L762.4,320L762.4,320L720,320L720,320L677.6,320L677.6,320L635.3,320L635.3,320L592.9,320L592.9,320L550.6,320L550.6,320L508.2,320L508.2,320L465.9,320L465.9,320L423.5,320L423.5,320L381.2,320L381.2,320L338.8,320L338.8,320L296.5,320L296.5,320L254.1,320L254.1,320L211.8,320L211.8,320L169.4,320L169.4,320L127.1,320L127.1,320L84.7,320L84.7,320L42.4,320L42.4,320L0,320L0,320Z"></path></svg>